<?xml version="1.0" standalone="no"?><!DOCTYPE svg PUBLIC "-//W3C//DTD SVG 1.1//EN" "http://www.w3.org/Graphics/SVG/1.1/DTD/svg11.dtd"><svg width="100%" height="100%" viewBox="0 0 1280 800" version="1.1" xmlns="http://www.w3.org/2000/svg" xmlns:xlink="http://www.w3.org/1999/xlink" xml:space="preserve" style="fill-rule:evenodd;clip-rule:evenodd;stroke-linecap:round;stroke-linejoin:round;stroke-miterlimit:1.41421;"><g id="8"><path id="8 Neighbours" d="M50,12.326c0,-6.803 -5.523,-12.326 -12.326,-12.326l-25.348,0c-6.803,0 -12.326,5.523 -12.326,12.326l0,24.652c0,6.803 5.523,12.326 12.326,12.326l25.348,0c6.803,0 12.326,-5.523 12.326,-12.326l0,-24.652Z" style="fill:#ebebeb;stroke-width:2px;stroke:#666;"/><path id="81" d="M19.293,30.402c0,1.633 0.52,2.958 1.559,3.975c1.039,1.017 2.418,1.525 4.136,1.525c1.735,0 3.121,-0.493 4.16,-1.479c1.04,-0.986 1.559,-2.296 1.559,-3.929c0,-1.602 -0.531,-2.9 -1.594,-3.894c-1.062,-0.994 -2.437,-1.491 -4.125,-1.491c-1.672,0 -3.039,0.49 -4.101,1.468c-1.063,0.978 -1.594,2.253 -1.594,3.825ZM19.527,16.628c0,1.525 0.512,2.773 1.536,3.744c1.023,0.97 2.332,1.456 3.925,1.456c1.61,0 2.926,-0.49 3.95,-1.468c1.023,-0.978 1.535,-2.238 1.535,-3.779c0,-1.479 -0.512,-2.7 -1.535,-3.663c-1.024,-0.963 -2.34,-1.444 -3.95,-1.444c-1.609,0 -2.922,0.481 -3.937,1.444c-1.016,0.963 -1.524,2.2 -1.524,3.71ZM20.301,23.399c-1.516,-0.739 -2.656,-1.675 -3.422,-2.808c-0.766,-1.132 -1.149,-2.453 -1.149,-3.963c0,-2.389 0.868,-4.349 2.602,-5.882c1.734,-1.533 3.953,-2.3 6.656,-2.3c2.657,0 4.867,0.771 6.633,2.311c1.766,1.541 2.649,3.421 2.649,5.64c0,1.648 -0.375,3.042 -1.125,4.183c-0.75,1.14 -1.915,2.08 -3.493,2.819c1.578,0.632 2.789,1.56 3.633,2.785c0.844,1.225 1.266,2.662 1.266,4.31c0,2.542 -0.887,4.615 -2.66,6.217c-1.774,1.603 -4.075,2.404 -6.903,2.404c-2.828,0 -5.125,-0.809 -6.89,-2.427c-1.766,-1.618 -2.649,-3.713 -2.649,-6.286c0,-1.572 0.422,-2.97 1.266,-4.195c0.844,-1.225 2.039,-2.161 3.586,-2.808Z" style="fill:#000;fill-rule:nonzero;"/></g><g id="7"><path id="7 Neighbours" d="M50.047,12.326c0,-6.803 -5.523,-12.326 -12.326,-12.326l-25.348,0c-6.803,0 -12.326,5.523 -12.326,12.326l0,24.652c0,6.803 5.523,12.326 12.326,12.326l25.348,0c6.803,0 12.326,-5.523 12.326,-12.326l0,-24.652Z" style="fill:#ebebeb;stroke-width:2px;stroke:#666;"/><path id="71" d="M25.387,37.89c-0.125,0.37 -0.242,0.608 -0.352,0.716c-0.109,0.108 -0.312,0.162 -0.609,0.162l-0.399,0l-1.664,0c-0.312,0 -0.558,-0.062 -0.738,-0.185c-0.18,-0.123 -0.27,-0.293 -0.27,-0.508c0,-0.124 0.012,-0.243 0.036,-0.359c0.023,-0.115 0.058,-0.25 0.105,-0.404l9.211,-24.659l-11.906,0c-0.047,0.724 -0.211,1.259 -0.492,1.606c-0.282,0.346 -0.696,0.52 -1.243,0.52c-0.531,0 -0.925,-0.131 -1.183,-0.393c-0.258,-0.262 -0.387,-0.67 -0.387,-1.225c0,-0.154 0.004,-0.27 0.012,-0.347c0.008,-0.077 0.019,-0.146 0.035,-0.208l0.234,-2.08c0.047,-0.431 0.207,-0.762 0.481,-0.993c0.273,-0.232 0.644,-0.347 1.113,-0.347l15.492,0c0.453,0 0.785,0.096 0.996,0.289c0.211,0.192 0.317,0.497 0.317,0.913l0,0.785c0,0.185 -0.039,0.428 -0.117,0.728c-0.079,0.301 -0.204,0.705 -0.375,1.214l-8.297,24.775Z" style="fill:#000;fill-rule:nonzero;"/></g><g id="6"><path id="6 Neighbours" d="M50.047,12.326c0,-6.803 -5.523,-12.326 -12.326,-12.326l-25.348,0c-6.803,0 -12.326,5.523 -12.326,12.326l0,24.652c0,6.803 5.523,12.326 12.326,12.326l25.348,0c6.803,0 12.326,-5.523 12.326,-12.326l0,-24.652Z" style="fill:#ebebeb;stroke-width:2px;stroke:#666;"/><path id="61" d="M19.996,29.362c0,1.895 0.508,3.44 1.524,4.634c1.015,1.194 2.32,1.791 3.914,1.791c1.5,0 2.73,-0.563 3.691,-1.687c0.961,-1.125 1.441,-2.597 1.441,-4.415c0,-1.879 -0.496,-3.405 -1.488,-4.576c-0.992,-1.171 -2.269,-1.756 -3.832,-1.756c-1.516,0 -2.769,0.562 -3.762,1.687c-0.992,1.125 -1.488,2.565 -1.488,4.322ZM19.48,23.214c0.844,-1.078 1.782,-1.887 2.813,-2.426c1.031,-0.54 2.156,-0.809 3.375,-0.809c2.469,0 4.566,0.916 6.293,2.75c1.727,1.833 2.59,4.091 2.59,6.771c0,2.805 -0.836,5.108 -2.508,6.911c-1.672,1.802 -3.813,2.704 -6.422,2.704c-3.078,0 -5.543,-1.206 -7.394,-3.617c-1.852,-2.411 -2.778,-5.628 -2.778,-9.649c0,-5.239 1.367,-9.449 4.102,-12.63c2.734,-3.182 6.344,-4.773 10.828,-4.773c1.516,0 2.516,0.108 3,0.324c0.484,0.216 0.726,0.624 0.726,1.225c0,0.986 -0.921,1.494 -2.765,1.525c-1.219,0.015 -2.195,0.093 -2.93,0.231c-2.469,0.462 -4.472,1.683 -6.012,3.663c-1.539,1.98 -2.511,4.58 -2.918,7.8Z" style="fill:#000;fill-rule:nonzero;"/></g><g id="5"><path id="5 Neighbours" d="M50,12.326c0,-6.803 -5.523,-12.326 -12.326,-12.326l-25.348,0c-6.803,0 -12.326,5.523 -12.326,12.326l0,24.652c0,6.803 5.523,12.326 12.326,12.326l25.348,0c6.803,0 12.326,-5.523 12.326,-12.326l0,-24.652Z" style="fill:#ebebeb;stroke-width:2px;stroke:#666;"/><path id="51" d="M19.715,20.279c1.031,-0.37 1.984,-0.643 2.859,-0.82c0.875,-0.177 1.711,-0.266 2.508,-0.266c2.734,0 5.012,0.936 6.832,2.808c1.82,1.872 2.731,4.195 2.731,6.968c0,2.943 -1.008,5.369 -3.024,7.28c-2.016,1.91 -4.594,2.866 -7.734,2.866c-2.625,0 -4.824,-0.351 -6.598,-1.052c-1.773,-0.701 -2.66,-1.552 -2.66,-2.554c0,-0.4 0.164,-0.758 0.492,-1.074c0.328,-0.316 0.711,-0.474 1.149,-0.474c0.171,0 1.089,0.297 2.753,0.89c1.665,0.593 3.207,0.889 4.629,0.889c2.094,0 3.793,-0.62 5.098,-1.86c1.305,-1.24 1.957,-2.839 1.957,-4.796c0,-1.91 -0.617,-3.501 -1.852,-4.772c-1.234,-1.271 -2.789,-1.907 -4.664,-1.907c-1.406,0 -2.785,0.347 -4.136,1.04c-1.352,0.694 -2.168,1.04 -2.45,1.04c-0.468,0 -0.8,-0.169 -0.996,-0.508c-0.195,-0.339 -0.293,-0.955 -0.293,-1.849l0,-11.509c0,-0.509 0.161,-0.875 0.481,-1.098c0.32,-0.223 0.879,-0.335 1.676,-0.335l11.859,0c0.75,0 1.313,0.15 1.688,0.451c0.375,0.3 0.562,0.751 0.562,1.352c0,0.57 -0.195,1.013 -0.586,1.328c-0.391,0.316 -0.945,0.474 -1.664,0.474l-10.617,0l0,7.488Z" style="fill:#000;fill-rule:nonzero;"/></g><g id="4"><path id="4 Neighbours" d="M50.047,12.326c0,-6.803 -5.523,-12.326 -12.326,-12.326l-25.348,0c-6.803,0 -12.326,5.523 -12.326,12.326l0,24.652c0,6.803 5.523,12.326 12.326,12.326l25.348,0c6.803,0 12.326,-5.523 12.326,-12.326l0,-24.652Z" style="fill:#ebebeb;stroke-width:2px;stroke:#666;"/><path id="41" d="M27.004,27.698l0,-15.669l-8.883,15.669l8.883,0ZM24.473,38.352c-0.75,0 -1.258,-0.119 -1.524,-0.358c-0.265,-0.239 -0.398,-0.674 -0.398,-1.306c0,-0.555 0.137,-0.959 0.41,-1.213c0.273,-0.255 0.715,-0.382 1.324,-0.382l2.719,0l0,-3.882l-10.945,0c-0.391,0 -0.696,-0.124 -0.914,-0.37c-0.219,-0.247 -0.329,-0.601 -0.329,-1.063l0,-1.595c0,-0.616 0.227,-1.263 0.68,-1.941c0.078,-0.123 0.141,-0.224 0.188,-0.301l9.89,-16.547c0.219,-0.385 0.399,-0.632 0.539,-0.74c0.141,-0.108 0.328,-0.161 0.563,-0.161c0.094,0 0.258,0.015 0.492,0.046c0.062,0.015 0.125,0.031 0.187,0.046l2.391,0.37c0.219,0.031 0.395,0.15 0.527,0.358c0.133,0.208 0.2,0.481 0.2,0.82l0,17.565l1.195,0c0.344,0 0.609,-0.135 0.797,-0.405c0.187,-0.269 0.398,-0.404 0.633,-0.404c0.312,0 0.578,0.115 0.797,0.347c0.218,0.231 0.328,0.516 0.328,0.855c0,0.138 -0.008,0.265 -0.024,0.381c-0.015,0.116 -0.047,0.235 -0.094,0.358l-0.187,0.948c-0.109,0.554 -0.27,0.932 -0.48,1.132c-0.211,0.201 -0.543,0.301 -0.997,0.301l-1.968,0l0,3.882l0.82,0c1,0 1.687,0.12 2.062,0.359c0.375,0.238 0.563,0.651 0.563,1.236c0,0.555 -0.156,0.971 -0.469,1.248c-0.312,0.277 -0.781,0.416 -1.406,0.416l-7.57,0Z" style="fill:#000;fill-rule:nonzero;"/></g><g id="3"><path id="3 Neighbours" d="M50,12.326c0,-6.803 -5.523,-12.326 -12.326,-12.326l-25.348,0c-6.803,0 -12.326,5.523 -12.326,12.326l0,24.652c0,6.803 5.523,12.326 12.326,12.326l25.348,0c6.803,0 12.326,-5.523 12.326,-12.326l0,-24.652Z" style="fill:#ebebeb;stroke-width:2px;stroke:#666;"/><path id="31" d="M28.645,22.452c1.828,0.493 3.246,1.39 4.253,2.692c1.008,1.302 1.512,2.893 1.512,4.772c0,2.697 -0.969,4.904 -2.906,6.622c-1.938,1.718 -4.445,2.577 -7.524,2.577c-2.375,0 -4.488,-0.451 -6.339,-1.352c-1.852,-0.902 -2.778,-1.892 -2.778,-2.97c0,-0.462 0.168,-0.844 0.504,-1.144c0.336,-0.301 0.746,-0.451 1.231,-0.451c0.265,0 1.23,0.393 2.894,1.179c1.664,0.786 3.215,1.179 4.653,1.179c1.859,0 3.371,-0.524 4.535,-1.572c1.164,-1.048 1.746,-2.404 1.746,-4.068c0,-1.371 -0.403,-2.53 -1.207,-3.478c-0.805,-0.947 -1.91,-1.552 -3.317,-1.814c-0.422,-0.077 -0.976,-0.139 -1.664,-0.185c-1.312,-0.077 -1.968,-0.616 -1.968,-1.618c0,-0.909 0.64,-1.44 1.921,-1.594c0.5,-0.046 0.914,-0.1 1.243,-0.162c1.218,-0.185 2.203,-0.678 2.953,-1.479c0.75,-0.801 1.125,-1.772 1.125,-2.912c0,-1.464 -0.461,-2.658 -1.383,-3.582c-0.922,-0.925 -2.094,-1.387 -3.516,-1.387c-1.312,0 -2.66,0.401 -4.043,1.202c-1.382,0.801 -2.246,1.202 -2.59,1.202c-0.437,0 -0.8,-0.139 -1.089,-0.416c-0.289,-0.278 -0.434,-0.624 -0.434,-1.04c0,-0.94 0.875,-1.876 2.625,-2.808c1.75,-0.933 3.688,-1.399 5.813,-1.399c2.437,0 4.464,0.728 6.082,2.184c1.617,1.456 2.425,3.247 2.425,5.374c0,1.617 -0.386,2.95 -1.16,3.998c-0.773,1.048 -1.972,1.864 -3.597,2.45Z" style="fill:#000;fill-rule:nonzero;"/></g><g id="2"><path id="2 Neighbours" d="M50,12.326c0,-6.803 -5.523,-12.326 -12.326,-12.326l-25.348,0c-6.803,0 -12.326,5.523 -12.326,12.326l0,24.652c0,6.803 5.523,12.326 12.326,12.326l25.348,0c6.803,0 12.326,-5.523 12.326,-12.326l0,-24.652Z" style="fill:#ebebeb;stroke-width:2px;stroke:#666;"/><path id="21" d="M16.832,38.352c-0.828,0 -1.441,-0.166 -1.84,-0.497c-0.398,-0.331 -0.597,-0.843 -0.597,-1.537c0,-1.001 1.5,-2.881 4.5,-5.639l0.679,-0.647c0.453,-0.431 1.11,-1.048 1.969,-1.849c5.406,-5.023 8.109,-8.682 8.109,-10.978c0,-1.648 -0.476,-2.985 -1.429,-4.009c-0.953,-1.025 -2.188,-1.537 -3.703,-1.537c-0.985,0 -1.926,0.2 -2.825,0.601c-0.898,0.4 -1.621,0.939 -2.168,1.617c-0.093,0.124 -0.242,0.332 -0.445,0.624c-0.578,1.033 -1.227,1.549 -1.945,1.549c-0.563,0 -0.961,-0.17 -1.196,-0.509c-0.234,-0.339 -0.351,-0.986 -0.351,-1.941c0,-0.555 0.055,-0.959 0.164,-1.213c0.109,-0.254 0.312,-0.528 0.609,-0.821c1,-0.955 2.239,-1.714 3.715,-2.276c1.477,-0.562 2.988,-0.844 4.535,-0.844c2.594,0 4.762,0.825 6.504,2.473c1.742,1.649 2.613,3.675 2.613,6.078c0,3.02 -2.656,7.034 -7.968,12.041c-1.36,1.248 -2.399,2.227 -3.117,2.935l-2.883,2.727l10.711,0c0.062,-0.662 0.246,-1.167 0.55,-1.513c0.305,-0.347 0.715,-0.52 1.231,-0.52c0.516,0 0.922,0.169 1.219,0.508c0.297,0.339 0.445,0.801 0.445,1.387c0,0.046 -0.008,0.127 -0.023,0.242c-0.016,0.116 -0.024,0.197 -0.024,0.243l-0.187,1.78c-0.047,0.477 -0.188,0.851 -0.422,1.121c-0.235,0.269 -0.539,0.404 -0.914,0.404l-15.516,0Z" style="fill:#000;fill-rule:nonzero;"/></g><g id="1"><path id="1 Neighbour" d="M50,12.326c0,-6.803 -5.523,-12.326 -12.326,-12.326l-25.348,0c-6.803,0 -12.326,5.523 -12.326,12.326l0,24.652c0,6.803 5.523,12.326 12.326,12.326l25.348,0c6.803,0 12.326,-5.523 12.326,-12.326l0,-24.652Z" style="fill:#ebebeb;stroke-width:2px;stroke:#666;"/><path id="11" d="M19.387,13.554c-0.203,0.031 -0.356,0.054 -0.457,0.069c-0.102,0.016 -0.192,0.023 -0.27,0.023c-0.484,0 -0.879,-0.135 -1.183,-0.404c-0.305,-0.27 -0.457,-0.628 -0.457,-1.075c0,-0.37 0.132,-0.693 0.398,-0.97c0.266,-0.278 0.648,-0.486 1.148,-0.624l6.961,-1.849c0.172,-0.047 0.34,-0.081 0.504,-0.104c0.164,-0.023 0.332,-0.035 0.504,-0.035c0.297,0 0.531,0.135 0.703,0.404c0.172,0.27 0.258,0.636 0.258,1.098l0,25.006l3.75,0c1.391,0 2.274,0.112 2.649,0.335c0.375,0.224 0.562,0.644 0.562,1.26c0,0.555 -0.156,0.971 -0.469,1.248c-0.312,0.277 -0.781,0.416 -1.406,0.416l-14.016,0c-0.625,0 -1.093,-0.139 -1.406,-0.416c-0.312,-0.277 -0.469,-0.693 -0.469,-1.248c0,-0.616 0.188,-1.036 0.563,-1.26c0.375,-0.223 1.258,-0.335 2.648,-0.335l3.891,0l0,-22.579l-4.406,1.04Z" style="fill:#000;fill-rule:nonzero;"/></g><path id="EmptyCell" d="M50,12.5c0,-6.899 -5.601,-12.5 -12.5,-12.5l-25,0c-6.899,0 -12.5,5.601 -12.5,12.5l0,25c0,6.899 5.601,12.5 12.5,12.5l25,0c6.899,0 12.5,-5.601 12.5,-12.5l0,-25Z" style="fill:#ebebeb;stroke-width:2px;stroke:#666;"/><path id="UnknownCell" d="M50,12.5c0,-6.899 -5.601,-12.5 -12.5,-12.5l-25,0c-6.899,0 -12.5,5.601 -12.5,12.5l0,25c0,6.899 5.601,12.5 12.5,12.5l25,0c6.899,0 12.5,-5.601 12.5,-12.5l0,-25Z" style="fill:#999;stroke-width:2px;stroke:#666;"/><g id="ConfirmedMine"><path id="Confirmed Mine Cell" d="M50,12.5c0,-6.899 -5.601,-12.5 -12.5,-12.5l-25,0c-6.899,0 -12.5,5.601 -12.5,12.5l0,25c0,6.899 5.601,12.5 12.5,12.5l25,0c6.899,0 12.5,-5.601 12.5,-12.5l0,-25Z" style="fill:#0f0;stroke-width:2px;stroke:#666;"/><g id="Mine"><circle cx="25" cy="25" r="12.895" style="fill:#000;stroke-width:2px;stroke:#000;"/><path d="M7.5,25l35,0" style="fill:none;stroke-width:5px;stroke:#000;"/><path d="M12.626,37.374l24.748,-24.748" style="fill:none;stroke-width:5px;stroke:#000;"/><path d="M25,7.5l0,35" style="fill:none;stroke-width:5px;stroke:#000;"/><path d="M12.626,12.626l24.748,24.748" style="fill:none;stroke-width:5px;stroke:#000;"/></g></g><g id="FalseMine"><path id="False Mine Cell" d="M50,12.5c0,-6.899 -5.601,-12.5 -12.5,-12.5l-25,0c-6.899,0 -12.5,5.601 -12.5,12.5l0,25c0,6.899 5.601,12.5 12.5,12.5l25,0c6.899,0 12.5,-5.601 12.5,-12.5l0,-25Z" style="fill:#ff0;stroke-width:2px;stroke:#666;"/><g id="Mine1"><circle cx="25" cy="25" r="12.895" style="fill:#000;stroke-width:2px;stroke:#000;"/><path d="M7.5,25l35,0" style="fill:none;stroke-width:5px;stroke:#000;"/><path d="M12.626,37.374l24.748,-24.748" style="fill:none;stroke-width:5px;stroke:#000;"/><path d="M25,7.5l0,35" style="fill:none;stroke-width:5px;stroke:#000;"/><path d="M12.626,12.626l24.748,24.748" style="fill:none;stroke-width:5px;stroke:#000;"/></g></g><g id="ExplodedMine"><path id="Exploded Mine Cell" d="M50,12.5c0,-6.899 -5.601,-12.5 -12.5,-12.5l-25,0c-6.899,0 -12.5,5.601 -12.5,12.5l0,25c0,6.899 5.601,12.5 12.5,12.5l25,0c6.899,0 12.5,-5.601 12.5,-12.5l0,-25Z" style="fill:#f00;stroke-width:2px;stroke:#666;"/><g id="Mine2"><circle cx="25" cy="25" r="12.895" style="fill:#000;stroke-width:2px;stroke:#000;"/><path d="M7.5,25l35,0" style="fill:none;stroke-width:5px;stroke:#000;"/><path d="M12.626,37.374l24.748,-24.748" style="fill:none;stroke-width:5px;stroke:#000;"/><path d="M25,7.5l0,35" style="fill:none;stroke-width:5px;stroke:#000;"/><path d="M12.626,12.626l24.748,24.748" style="fill:none;stroke-width:5px;stroke:#000;"/></g></g><g id="Flag"><path id="Flagged Cell" d="M50,12.5c0,-6.899 -5.601,-12.5 -12.5,-12.5l-25,0c-6.899,0 -12.5,5.601 -12.5,12.5l0,25c0,6.899 5.601,12.5 12.5,12.5l25,0c6.899,0 12.5,-5.601 12.5,-12.5l0,-25Z" style="fill:#ebebeb;stroke-width:2px;stroke:#666;"/><path id="Flag 1" d="M40.5,19c-15.461,8.946 -16.452,-5.927 -28,10l0,-21c13.65,-5.229 12.127,10.552 28,11Z" style="fill:#f00;stroke-width:2px;stroke:#000;"/><path id="Stick 1" d="M12.5,42l0,-34" style="fill:none;stroke-width:2px;stroke:#000;"/></g><g id="FalseFlag"><path id="False Flagged Cell" d="M50,12.5c0,-6.899 -5.601,-12.5 -12.5,-12.5l-25,0c-6.899,0 -12.5,5.601 -12.5,12.5l0,25c0,6.899 5.601,12.5 12.5,12.5l25,0c6.899,0 12.5,-5.601 12.5,-12.5l0,-25Z" style="fill:#ff0;stroke-width:2px;stroke:#666;"/><path id="Flag1" d="M40.5,19c-15.461,8.946 -16.452,-5.927 -28,10l0,-21c13.65,-5.229 12.127,10.552 28,11Z" style="fill:#f00;stroke-width:2px;stroke:#000;"/><path id="Stick" d="M12.5,42l0,-34" style="fill:none;stroke-width:2px;stroke:#000;"/></g></svg>